<svg width="24" height="24" viewBox="0 0 24 24" fill="none" xmlns="http://www.w3.org/2000/svg">
<path fill-rule="evenodd" clip-rule="evenodd" d="M11.6905 13.3275L18.3554 19.9923C18.5776 20.207 18.8752 20.3257 19.1841 20.323C19.493 20.3203 19.7885 20.1964 20.0069 19.978C20.2254 19.7596 20.3493 19.4641 20.352 19.1551C20.3547 18.8462 20.2359 18.5486 20.0213 18.3264L13.3564 11.6615L20.0213 4.99665C20.2359 4.77445 20.3547 4.47684 20.352 4.16793C20.3493 3.85902 20.2254 3.56352 20.0069 3.34508C19.7885 3.12664 19.493 3.00273 19.1841 3.00004C18.8752 2.99736 18.5776 3.11611 18.3554 3.33072L11.6905 9.99561L5.02561 3.33072C4.8024 3.12142 4.50652 3.00716 4.20057 3.01213C3.89462 3.0171 3.60261 3.1409 3.38632 3.35734C3.17003 3.57379 3.04643 3.86589 3.04168 4.17184C3.03693 4.4778 3.15139 4.7736 3.36086 4.99665L10.0246 11.6615L3.35968 18.3264C3.24715 18.4351 3.1574 18.5651 3.09565 18.7088C3.03391 18.8526 3.0014 19.0072 3.00004 19.1636C2.99869 19.3201 3.02849 19.4752 3.08773 19.62C3.14697 19.7648 3.23446 19.8963 3.34508 20.0069C3.4557 20.1176 3.58724 20.205 3.73203 20.2643C3.87683 20.3235 4.03197 20.3533 4.1884 20.352C4.34484 20.3506 4.49944 20.3181 4.64318 20.2564C4.78692 20.1946 4.91692 20.1049 5.02561 19.9923L11.6905 13.3275Z" fill="white"/>
</svg>
