<svg width="211" height="58" viewBox="0 0 211 58" fill="none" xmlns="http://www.w3.org/2000/svg">
<g clip-path="url(#clip0_635_2405)">
<path fill-rule="evenodd" clip-rule="evenodd" d="M0 28.9979C0 38.1556 4.24664 46.3206 10.8748 51.6359C15.8138 55.5944 22.0777 57.9719 28.8939 57.9959H28.998C28.998 45.8243 21.5013 35.4059 10.8748 31.1032C7.51667 29.7424 3.84639 28.9939 0 28.9939V28.9979Z" fill="#7EA87E"/>
<path fill-rule="evenodd" clip-rule="evenodd" d="M39.8708 24.179C33.0266 33.7009 28.9961 45.3762 28.9961 57.996H29.1002C32.9065 57.984 36.5448 57.2355 39.8708 55.8867C42.5005 54.822 44.938 53.3811 47.1193 51.6361C53.7475 46.3208 57.9941 38.1557 57.9941 28.998C57.9941 22.47 55.8368 16.4422 52.1945 11.5952C50.4214 12.928 48.7283 14.3569 47.1193 15.8819C44.4497 18.4114 42.0202 21.1892 39.8708 24.183V24.179Z" fill="#7EA87E"/>
<path fill-rule="evenodd" clip-rule="evenodd" d="M28.9982 57.9999C28.9982 45.3801 33.0288 33.7008 39.873 24.1829V0.00390625H10.875V6.36385V31.1112C21.5016 35.4139 28.9982 45.8324 28.9982 58.0039V57.9999Z" fill="#FBFEF1"/>
<path fill-rule="evenodd" clip-rule="evenodd" d="M39.8711 0V24.179C42.0204 21.1851 44.4499 18.4074 47.1196 15.8779V7.2485L39.8711 0Z" fill="#ECEDE8" fill-opacity="0.4"/>
</g>
<path d="M82.9838 20.864C81.9598 20.864 80.9464 21.0133 79.9438 21.312C78.9411 21.5893 77.9598 21.9307 76.9998 22.336L75.4638 18.432C76.5944 17.9413 77.7891 17.5573 79.0477 17.28C80.3064 16.9813 81.6504 16.832 83.0798 16.832C84.7651 16.832 86.2584 17.0987 87.5598 17.632C88.8824 18.144 89.9918 18.912 90.8878 19.936C91.8051 20.9387 92.4984 22.176 92.9678 23.648C93.4584 25.0987 93.7038 26.752 93.7038 28.608C93.7038 30.9547 93.3091 33.0133 92.5198 34.784C91.7304 36.5333 90.5144 37.8987 88.8718 38.88C87.2504 39.84 85.1704 40.32 82.6318 40.32C81.3304 40.32 80.1464 40.224 79.0798 40.032C78.0344 39.84 76.9678 39.5413 75.8798 39.136V35.072C77.0958 35.456 78.2158 35.7547 79.2398 35.968C80.2851 36.1813 81.3198 36.288 82.3438 36.288C83.3251 36.288 84.1891 36.1707 84.9358 35.936C85.7038 35.68 86.3438 35.3173 86.8558 34.848C87.3891 34.3573 87.8051 33.7493 88.1038 33.024C88.4024 32.2773 88.5731 31.424 88.6158 30.464H78.6958V26.496H88.5838C88.5624 25.6 88.4131 24.8107 88.1358 24.128C87.8584 23.424 87.4744 22.8373 86.9838 22.368C86.4931 21.8773 85.9064 21.504 85.2238 21.248C84.5624 20.992 83.8158 20.864 82.9838 20.864ZM109.515 22.528H114.763L107.851 30.912L115.371 40H109.963L102.827 31.136V40H98.0585V22.528H102.827V31.008L109.515 22.528ZM133.118 31.232C133.118 32.6827 132.915 33.9733 132.51 35.104C132.126 36.2347 131.561 37.1947 130.814 37.984C130.089 38.752 129.203 39.3387 128.158 39.744C127.113 40.128 125.929 40.32 124.606 40.32C123.39 40.32 122.259 40.128 121.214 39.744C120.19 39.3387 119.305 38.752 118.558 37.984C117.811 37.1947 117.225 36.2347 116.798 35.104C116.393 33.9733 116.19 32.6827 116.19 31.232C116.19 29.2907 116.531 27.6587 117.214 26.336C117.897 24.992 118.878 23.968 120.158 23.264C121.438 22.56 122.953 22.208 124.702 22.208C126.345 22.208 127.795 22.56 129.054 23.264C130.313 23.968 131.305 24.992 132.03 26.336C132.755 27.6587 133.118 29.2907 133.118 31.232ZM121.054 31.232C121.054 32.384 121.171 33.3547 121.406 34.144C121.662 34.912 122.057 35.4987 122.59 35.904C123.123 36.288 123.817 36.48 124.67 36.48C125.523 36.48 126.206 36.288 126.718 35.904C127.251 35.4987 127.635 34.912 127.87 34.144C128.126 33.3547 128.254 32.384 128.254 31.232C128.254 30.08 128.126 29.12 127.87 28.352C127.635 27.584 127.251 27.008 126.718 26.624C126.185 26.24 125.491 26.048 124.638 26.048C123.379 26.048 122.462 26.4853 121.886 27.36C121.331 28.2133 121.054 29.504 121.054 31.232ZM149.123 22.528V26.112H141.827V40H137.059V22.528H149.123ZM162.068 22.208C164.03 22.208 165.62 22.976 166.836 24.512C168.052 26.0267 168.66 28.2667 168.66 31.232C168.66 33.216 168.372 34.8907 167.796 36.256C167.22 37.6 166.43 38.6133 165.428 39.296C164.425 39.9787 163.262 40.32 161.94 40.32C161.108 40.32 160.382 40.2133 159.764 40C159.166 39.7867 158.654 39.5093 158.228 39.168C157.801 38.8267 157.428 38.464 157.108 38.08H156.852C156.937 38.4853 157.001 38.912 157.044 39.36C157.086 39.7867 157.108 40.2133 157.108 40.64V47.68H152.34V22.528H156.212L156.884 24.8H157.108C157.428 24.3307 157.812 23.904 158.26 23.52C158.708 23.1147 159.241 22.7947 159.86 22.56C160.5 22.3253 161.236 22.208 162.068 22.208ZM160.532 26.016C159.7 26.016 159.038 26.1867 158.548 26.528C158.057 26.8693 157.694 27.392 157.46 28.096C157.246 28.7787 157.129 29.6427 157.108 30.688V31.2C157.108 32.3307 157.214 33.2907 157.428 34.08C157.641 34.848 158.004 35.4347 158.516 35.84C159.028 36.2453 159.721 36.448 160.596 36.448C161.321 36.448 161.918 36.2453 162.388 35.84C162.857 35.4347 163.209 34.8373 163.444 34.048C163.678 33.2587 163.796 32.2987 163.796 31.168C163.796 29.4613 163.529 28.1813 162.996 27.328C162.484 26.4533 161.662 26.016 160.532 26.016ZM179.758 22.176C182.104 22.176 183.896 22.688 185.134 23.712C186.392 24.7147 187.022 26.2613 187.022 28.352V40H183.694L182.766 37.632H182.638C182.147 38.2507 181.635 38.7627 181.102 39.168C180.59 39.5733 179.992 39.8613 179.31 40.032C178.648 40.224 177.827 40.32 176.846 40.32C175.822 40.32 174.894 40.128 174.062 39.744C173.251 39.3387 172.611 38.7307 172.142 37.92C171.672 37.088 171.438 36.0427 171.438 34.784C171.438 32.928 172.088 31.5627 173.39 30.688C174.691 29.792 176.643 29.3013 179.246 29.216L182.286 29.12V28.352C182.286 27.4347 182.04 26.7627 181.55 26.336C181.08 25.9093 180.419 25.696 179.566 25.696C178.712 25.696 177.88 25.824 177.07 26.08C176.259 26.3147 175.448 26.6133 174.638 26.976L173.07 23.744C174.008 23.2533 175.043 22.8693 176.174 22.592C177.326 22.3147 178.52 22.176 179.758 22.176ZM180.43 31.968C178.894 32.0107 177.827 32.288 177.23 32.8C176.632 33.312 176.334 33.984 176.334 34.816C176.334 35.5413 176.547 36.064 176.974 36.384C177.4 36.6827 177.955 36.832 178.638 36.832C179.662 36.832 180.526 36.5333 181.23 35.936C181.934 35.3173 182.286 34.4533 182.286 33.344V31.904L180.43 31.968ZM207.614 22.528V36.512H210.174V46.272H205.886V40H194.142V46.272H189.854V36.512H191.326C192.094 35.3387 192.745 34.0053 193.278 32.512C193.812 30.9973 194.238 29.3867 194.558 27.68C194.878 25.9733 195.113 24.256 195.262 22.528H207.614ZM199.262 26.112C199.092 27.392 198.878 28.64 198.622 29.856C198.366 31.0507 198.046 32.2027 197.662 33.312C197.3 34.4213 196.852 35.488 196.318 36.512H202.846V26.112H199.262Z" fill="#FBFEF1"/>
<defs>
<clipPath id="clip0_635_2405">
<rect width="58" height="58" fill="white"/>
</clipPath>
</defs>
</svg>
