<svg width="438" height="627" viewBox="0 0 438 627" fill="none" xmlns="http://www.w3.org/2000/svg">
<g clip-path="url(#clip0_210_1150)">
<path d="M156.033 148.045C159.647 140.964 159.204 136.255 153.737 127.054L152.271 124.655L149.662 120.652C149.337 120.168 149.012 119.684 148.685 119.201C147.014 116.725 146.209 114.076 145.678 109.964L145.226 106.014C144.436 99.2548 143.15 95.2711 139.413 91.5041C137.939 89.9135 135.374 88.1171 133.075 86.964C124.026 82.3447 113.734 85.1922 109.348 93.7857L108.717 95.1003C108.424 95.7551 108.168 96.4021 107.93 97.0923L107.482 98.5404L107.271 99.3251L106.866 101.086L106.663 102.078L106.015 105.601L105.229 110.36L104.712 113.173C104.066 116.427 103.329 118.823 102.39 120.663C101.448 122.508 99.9368 124.502 97.6863 126.937L95.7109 129.006L92.3208 132.441L89.8455 135.025L88.5406 136.469C88.1462 136.924 87.7871 137.349 87.4605 137.764L86.5507 138.976C86.131 139.573 85.7571 140.16 85.3991 140.782L84.7042 142.064C80.3177 150.657 84.0484 160.662 93.13 165.298C95.4206 166.467 98.3669 167.478 100.703 167.764C105.232 168.48 109.117 167.481 114.572 164.836L116.294 163.977L119.779 162.185C124.058 160.029 126.956 159.067 130.065 158.963L133.406 158.843L136.413 158.674C148.279 157.895 152.103 155.742 156.033 148.045Z" fill="#22231C" fill-opacity="0.2"/>
<path d="M150.822 197.993L150.904 197.832C154.135 191.238 151.621 182.307 145.435 175.376C137.803 166.815 126.433 163.324 119.248 169.278C117.963 170.353 116.931 171.659 116.181 173.129C112.81 179.732 115.312 188.779 121.554 195.772C129.192 204.31 140.578 207.782 147.738 201.862C149.015 200.795 150.066 199.475 150.822 197.993Z" fill="#22231C" fill-opacity="0.2"/>
<path d="M201.728 151.253C202.035 150.653 202.224 150.255 202.387 149.764L202.556 149.221C205.646 140.439 198.45 130.917 187.649 127.358C177.651 124.093 166.941 126.674 162.949 134.495L162.464 135.511C162.4 135.669 162.341 135.828 162.287 135.989L162.121 136.527C159.029 145.314 166.227 154.831 177.028 158.39C187.032 161.671 197.73 159.085 201.728 151.253Z" fill="#22231C" fill-opacity="0.2"/>
<path d="M185.444 183.154C189.439 175.328 185.247 165.155 176.73 158.988C167.509 152.321 155.579 152.073 150.034 160.062C149.682 160.579 149.379 161.08 149.116 161.595C145.31 169.051 148.939 178.7 156.703 184.922L157.825 185.772C167.046 192.439 178.976 192.687 184.521 184.698C184.864 184.206 185.173 183.69 185.444 183.154Z" fill="#22231C" fill-opacity="0.2"/>
<path d="M193.437 114.509C194.187 113.04 194.637 111.443 194.755 109.793C195.361 100.46 185.851 93.2994 174.453 92.1406C165.128 91.1876 156.339 94.4571 152.968 101.06C152.218 102.53 151.768 104.126 151.649 105.777C151.044 115.11 160.554 122.27 171.952 123.429C181.277 124.382 190.066 121.113 193.437 114.509Z" fill="#22231C" fill-opacity="0.2"/>
</g>
<g clip-path="url(#clip1_210_1150)">
<path d="M225.107 480.109C231.761 475.759 233.716 471.452 233.543 460.751L233.462 457.941L233.186 453.171C233.146 452.589 233.104 452.007 233.06 451.426C232.84 448.447 233.458 445.748 235.04 441.915L236.61 438.263C239.283 432.005 240.145 427.908 238.774 422.783C238.285 420.67 236.951 417.837 235.529 415.694C229.97 407.189 219.624 404.547 211.548 409.826L210.348 410.653C209.768 411.076 209.224 411.51 208.675 411.991L207.567 413.025L206.993 413.601L205.767 414.928L205.098 415.689L202.785 418.424L199.739 422.163L197.893 424.348C195.716 426.85 193.886 428.564 192.157 429.695C190.422 430.828 188.12 431.808 184.957 432.803L182.215 433.616L177.566 434.914L174.134 435.927L172.284 436.531C171.716 436.73 171.193 436.92 170.704 437.118L169.312 437.718C168.651 438.028 168.035 438.352 167.415 438.713L166.175 439.481C158.099 444.759 156.366 455.296 161.944 463.831C163.351 465.983 165.406 468.324 167.291 469.733C170.867 472.605 174.734 473.668 180.782 474.082L182.704 474.193L186.618 474.369C191.403 474.623 194.396 475.228 197.146 476.683L200.105 478.239L202.799 479.586C213.484 484.805 217.872 484.837 225.107 480.109Z" fill="#22231C" fill-opacity="0.2"/>
<path d="M195.769 520.868L195.92 520.769C201.999 516.651 204.255 507.652 202.33 498.563C199.96 487.341 191.827 478.663 182.633 480.261C180.983 480.555 179.439 481.176 178.058 482.079C171.852 486.135 169.529 495.229 171.471 504.399C173.858 515.603 182.015 524.274 191.17 522.693C192.808 522.402 194.376 521.779 195.769 520.868Z" fill="#22231C" fill-opacity="0.2"/>
<path d="M263.169 505.596C263.734 505.227 264.095 504.976 264.481 504.631L264.897 504.243C271.942 498.157 270.428 486.318 262.822 477.863C255.767 470.063 245.191 466.981 237.841 471.785L236.915 472.427C236.781 472.531 236.651 472.641 236.524 472.754L236.113 473.138C229.063 479.228 230.582 491.063 238.188 499.518C245.239 507.335 255.809 510.406 263.169 505.596Z" fill="#22231C" fill-opacity="0.2"/>
<path d="M233.188 525.191C240.544 520.384 241.959 509.472 237.632 499.889C232.942 489.521 222.711 483.379 213.93 487.557C213.368 487.831 212.856 488.115 212.372 488.432C205.364 493.012 203.72 503.188 207.367 512.446L207.918 513.74C212.608 524.108 222.839 530.25 231.62 526.072C232.163 525.815 232.687 525.521 233.188 525.191Z" fill="#22231C" fill-opacity="0.2"/>
<path d="M274.228 469.588C275.609 468.685 276.793 467.523 277.716 466.15C282.878 458.351 278.182 447.412 268.866 440.744C261.247 435.284 251.995 433.754 245.789 437.811C244.408 438.713 243.224 439.875 242.302 441.248C237.139 449.047 241.835 459.987 251.151 466.655C258.77 472.115 268.022 473.644 274.228 469.588Z" fill="#22231C" fill-opacity="0.2"/>
</g>
<g clip-path="url(#clip2_210_1150)">
<path d="M292.312 288.855C297.13 282.532 297.534 277.819 293.795 267.791L292.779 265.17L290.926 260.766C290.693 260.231 290.459 259.697 290.224 259.163C289.021 256.429 288.701 253.679 288.911 249.538L289.17 245.571C289.599 238.78 289.043 234.63 286.037 230.258C284.871 228.43 282.667 226.205 280.61 224.66C272.529 218.502 261.895 219.469 256.047 227.143L255.192 228.324C254.786 228.916 254.419 229.507 254.063 230.144L253.363 231.489L253.016 232.224L252.303 233.884L251.927 234.825L250.661 238.176L249.039 242.718L248.03 245.394C246.813 248.48 245.662 250.707 244.41 252.35C243.154 253.998 241.311 255.69 238.662 257.685L236.35 259.368L232.402 262.145L229.505 264.246L227.964 265.434C227.495 265.811 227.066 266.165 226.671 266.515L225.559 267.546C225.04 268.059 224.567 268.57 224.104 269.118L223.192 270.255C217.344 277.929 219.231 288.439 227.341 294.619C229.386 296.178 232.106 297.698 234.353 298.395C238.682 299.908 242.683 299.617 248.522 297.986L250.37 297.449L254.118 296.307C258.713 294.947 261.736 294.518 264.814 294.97L268.123 295.447L271.112 295.817C282.927 297.166 287.073 295.729 292.312 288.855Z" fill="#22231C" fill-opacity="0.2"/>
<path d="M278.281 337.075L278.39 336.931C282.745 331.019 281.863 321.782 277.012 313.86C271.028 304.075 260.462 298.613 252.331 303.192C250.874 304.02 249.627 305.121 248.626 306.434C244.132 312.33 244.982 321.678 249.877 329.672C255.871 339.434 266.456 344.881 274.557 340.332C276.003 339.51 277.273 338.399 278.281 337.075Z" fill="#22231C" fill-opacity="0.2"/>
<path d="M336.704 300.158C337.112 299.622 337.369 299.265 337.617 298.81L337.88 298.306C342.486 290.215 337.103 279.563 327.109 274.135C317.853 269.141 306.855 269.771 301.533 276.755L300.874 277.669C300.783 277.812 300.697 277.959 300.615 278.108L300.356 278.607C295.747 286.703 301.134 297.35 311.127 302.778C320.386 307.789 331.374 307.152 336.704 300.158Z" fill="#22231C" fill-opacity="0.2"/>
<path d="M314.994 328.645C320.32 321.657 318.008 310.899 310.727 303.313C302.842 295.108 291.147 292.738 284.267 299.61C283.829 300.056 283.441 300.495 283.091 300.955C278.017 307.614 279.867 317.755 286.398 325.261L287.35 326.297C295.235 334.502 306.93 336.872 313.81 330C314.236 329.576 314.631 329.124 314.994 328.645Z" fill="#22231C" fill-opacity="0.2"/>
<path d="M335.095 262.524C336.095 261.212 336.822 259.721 337.233 258.119C339.493 249.043 331.411 240.302 320.403 237.13C311.397 234.53 302.166 236.18 297.672 242.077C296.672 243.39 295.945 244.88 295.534 246.483C293.274 255.559 301.356 264.3 312.364 267.472C321.37 270.072 330.601 268.421 335.095 262.524Z" fill="#22231C" fill-opacity="0.2"/>
</g>
<g clip-path="url(#clip3_210_1150)">
<path d="M35.499 345.542C42.2726 341.381 44.3476 337.13 44.4738 326.429L44.4712 323.617L44.3291 318.841C44.305 318.259 44.2793 317.676 44.2519 317.093C44.1152 314.11 44.808 311.429 46.4964 307.642L48.168 304.035C51.015 297.854 51.9917 293.783 50.7641 288.621C50.3348 286.496 49.0807 283.626 47.7191 281.444C42.4005 272.787 32.1323 269.857 23.9115 274.908L22.6886 275.702C22.0968 276.108 21.5414 276.527 20.9792 276.992L19.8421 277.995L19.253 278.555L17.9899 279.847L17.3004 280.588L14.9114 283.258L11.7621 286.91L9.85598 289.043C7.60915 291.483 5.73219 293.145 3.97206 294.227C2.2068 295.311 -0.122169 296.226 -3.31166 297.132L-6.07529 297.869L-10.7588 299.036L-14.2178 299.952L-16.0836 300.505C-16.6571 300.687 -17.1851 300.863 -17.68 301.047L-19.0882 301.608C-19.7576 301.899 -20.3824 302.206 -21.012 302.55L-22.2727 303.282C-30.4935 308.333 -32.5206 318.817 -27.1831 327.504C-25.8369 329.696 -23.8481 332.093 -22.0035 333.554C-18.5099 336.525 -14.6736 337.695 -8.6393 338.278L-6.72147 338.443L-2.81397 338.729C1.96227 339.116 4.93713 339.805 7.64504 341.336L10.5596 342.974L13.2147 344.396C23.7497 349.912 28.1351 350.067 35.499 345.542Z" fill="#22231C" fill-opacity="0.2"/>
<path d="M5.03312 385.465L5.18707 385.371C11.3794 381.425 13.8855 372.491 12.2154 363.353C10.1602 352.069 2.27317 343.166 -6.96167 344.507C-8.619 344.755 -10.1799 345.332 -11.586 346.196C-17.9029 350.077 -20.4793 359.103 -18.7939 368.324C-16.7213 379.59 -8.8106 388.485 0.385167 387.161C2.03107 386.916 3.61544 386.337 5.03312 385.465Z" fill="#22231C" fill-opacity="0.2"/>
<path d="M72.8341 372.084C73.4088 371.731 73.7771 371.491 74.1723 371.156L74.5991 370.781C81.8112 364.894 80.6288 353.017 73.2628 344.353C66.4287 336.358 55.943 332.982 48.4611 337.579L47.5173 338.194C47.3806 338.295 47.2474 338.4 47.1178 338.51L46.6961 338.882C39.4789 344.772 40.6664 356.646 48.0324 365.31C54.8626 373.321 65.3419 376.687 72.8341 372.084Z" fill="#22231C" fill-opacity="0.2"/>
<path d="M42.3168 390.833C49.8038 386.234 51.5242 375.366 47.4662 365.665C43.0683 355.171 33.0134 348.745 24.1187 352.676C23.5492 352.934 23.0293 353.203 22.5367 353.506C15.4038 357.888 13.4752 368.015 16.8623 377.371L17.3771 378.68C21.775 389.175 31.8299 395.601 40.7246 391.67C41.274 391.428 41.8061 391.149 42.3168 390.833Z" fill="#22231C" fill-opacity="0.2"/>
<path d="M84.8961 336.4C86.3022 335.536 87.5175 334.408 88.4784 333.061C93.8571 325.409 89.4687 314.343 80.3433 307.417C72.8797 301.746 63.674 299.959 57.357 303.84C55.951 304.703 54.7357 305.832 53.7747 307.178C48.396 314.83 52.7844 325.896 61.9098 332.822C69.3734 338.493 78.5791 340.281 84.8961 336.4Z" fill="#22231C" fill-opacity="0.2"/>
</g>
<g clip-path="url(#clip4_210_1150)">
<path d="M-7.12204 177.518C-5.81083 176.516 -4.71623 175.27 -3.89679 173.833C0.678304 165.676 -4.80966 155.111 -14.5903 149.146C-22.5906 144.261 -31.9301 143.417 -37.8209 147.918C-39.1321 148.92 -40.2267 150.166 -41.0462 151.603C-45.6213 159.761 -40.1333 170.325 -30.3526 176.29C-22.3524 181.175 -13.0129 182.02 -7.12204 177.518Z" fill="#22231C" fill-opacity="0.2"/>
</g>
<defs>
<clipPath id="clip0_210_1150">
<rect width="144.544" height="144.544" fill="white" transform="translate(242.533 111.056) rotate(117.042)"/>
</clipPath>
<clipPath id="clip1_210_1150">
<rect width="144.544" height="144.544" fill="white" transform="translate(318.553 490.983) rotate(146.832)"/>
</clipPath>
<clipPath id="clip2_210_1150">
<rect width="144.544" height="144.544" fill="white" transform="translate(384.021 267.878) rotate(127.31)"/>
</clipPath>
<clipPath id="clip3_210_1150">
<rect width="144.544" height="144.544" fill="white" transform="translate(128.604 359.026) rotate(148.435)"/>
</clipPath>
<clipPath id="clip4_210_1150">
<rect width="144.544" height="144.544" fill="white" transform="translate(38.6553 195.595) rotate(142.615)"/>
</clipPath>
</defs>
</svg>
