<svg width="41" height="41" viewBox="0 0 41 41" fill="none" xmlns="http://www.w3.org/2000/svg">
<g clip-path="url(#clip0_544_6974)">
<path fill-rule="evenodd" clip-rule="evenodd" d="M25.719 7.48988C26.4426 7.19015 27.2181 7.03589 28.0013 7.03589C28.7845 7.03589 29.5601 7.19015 30.2836 7.48988C31.0072 7.7896 31.6647 8.2289 32.2185 8.78272C32.7723 9.33653 33.2116 9.994 33.5114 10.7176C33.8111 11.4412 33.9653 12.2167 33.9653 12.9999C33.9653 13.7831 33.8111 14.5587 33.5114 15.2823C33.2116 16.0059 32.7723 16.6633 32.2185 17.2172L14.7185 34.7171C14.4841 34.9516 14.1662 35.0833 13.8346 35.0833H7.16797C6.47761 35.0833 5.91797 34.5236 5.91797 33.8333V27.1666C5.91797 26.8351 6.04966 26.5171 6.28409 26.2827L23.7841 8.78272C24.3379 8.2289 24.9954 7.7896 25.719 7.48988ZM23.0013 13.101L8.41797 27.6844V32.5833H13.3169L27.9002 17.9999L23.0013 13.101ZM29.668 16.2322L24.7691 11.3333L25.5519 10.5505C25.8735 10.2288 26.2554 9.97366 26.6757 9.79957C27.0959 9.62549 27.5464 9.53589 28.0013 9.53589C28.4562 9.53589 28.9067 9.62549 29.3269 9.79957C29.7472 9.97366 30.1291 10.2288 30.4508 10.5505C30.7724 10.8722 31.0276 11.254 31.2017 11.6743C31.3757 12.0946 31.4653 12.545 31.4653 12.9999C31.4653 13.4548 31.3757 13.9053 31.2017 14.3256C31.0276 14.7458 30.7724 15.1277 30.4508 15.4494L29.668 16.2322ZM25.918 32.1666C25.918 31.4762 26.4776 30.9166 27.168 30.9166H37.168C37.8583 30.9166 38.418 31.4762 38.418 32.1666C38.418 32.857 37.8583 33.4166 37.168 33.4166H27.168C26.4776 33.4166 25.918 32.857 25.918 32.1666Z" fill="#1F2212"/>
</g>
<defs>
<clipPath id="clip0_544_6974">
<rect width="40" height="40" fill="white" transform="translate(0.5 0.5)"/>
</clipPath>
</defs>
</svg>
